<?xml version="1.0" standalone="no"?>
<!DOCTYPE svg PUBLIC "-//W3C//DTD SVG 20010904//EN"
 "http://www.w3.org/TR/2001/REC-SVG-20010904/DTD/svg10.dtd">
<svg version="1.0" xmlns="http://www.w3.org/2000/svg"
 width="700.000000pt" height="700.000000pt" viewBox="0 0 700.000000 700.000000"
 preserveAspectRatio="xMidYMid meet">
<metadata>
Created by potrace 1.11, written by Peter Selinger 2001-2013
</metadata>
<g transform="translate(0.000000,700.000000) scale(0.100000,-0.100000)"
fill="#000000" stroke="none">
<path d="M1004 6046 c-17 -8 -47 -30 -67 -50 -72 -72 -68 95 -65 -2247 l3
-2106 30 -49 c19 -29 48 -59 75 -75 35 -21 325 -97 1283 -335 l1237 -309 1242
310 c1379 344 1308 322 1358 420 l25 49 3 2085 c1 1379 -1 2104 -8 2140 -20
107 -105 181 -209 181 -34 0 -446 -99 -1211 -290 -638 -159 -1178 -290 -1200
-290 -22 0 -562 131 -1200 290 -807 202 -1176 290 -1212 290 -29 -1 -67 -7
-84 -14z m1366 -746 c973 -243 1046 -260 1130 -260 84 0 157 17 1130 260 572
143 1045 260 1050 260 7 0 10 -635 10 -1843 l0 -1842 -1097 -274 -1098 -273
-1090 273 -1090 274 -3 1843 c-1 1212 1 1842 8 1842 5 0 478 -117 1050 -260z"/>
<path d="M1795 4918 c-42 -23 -45 -35 -45 -208 0 -162 1 -167 24 -189 19 -18
150 -51 711 -181 378 -88 702 -160 719 -160 21 0 40 8 54 23 21 22 22 33 22
188 0 192 -3 201 -83 223 -76 22 -1353 316 -1369 316 -7 0 -22 -6 -33 -12z"/>
<path d="M1781 4114 l-31 -26 0 -169 0 -170 26 -24 c15 -14 32 -25 39 -25 7 0
322 -72 700 -160 378 -89 696 -158 706 -155 11 4 29 16 39 28 18 19 20 36 20
188 0 145 -2 170 -18 189 -20 24 23 13 -914 230 -284 66 -521 120 -527 120 -5
0 -23 -12 -40 -26z"/>
</g>
</svg>
